<svg xmlns="http://www.w3.org/2000/svg" xmlns:xlink="http://www.w3.org/1999/xlink" width="162.432" height="46.35" viewBox="0 0 162.432 46.35"><defs><style>.a,.b,.c,.l{fill-rule:evenodd;}.a{fill:url(#a);}.c,.d{fill:#fff;}.e{fill:#626466;}.f{fill:#6d6e71;}.g{fill:#bcbec0;}.h{fill:#e6e7e8;}.i{fill:#808285;}.j{fill:#d1d3d4;}.k{fill:#f1f2f2;}.l,.m{fill:#a7a9ac;}.n{fill:#dbdcde;}</style><linearGradient id="a" x1="0.787" y1="0.09" x2="0.213" y2="0.91" gradientUnits="objectBoundingBox"><stop offset="0" stop-color="#fff"/><stop offset="0.1" stop-color="#dadada" stop-opacity="0.988"/><stop offset="0.29" stop-color="#989898" stop-opacity="0.961"/><stop offset="0.47" stop-color="#626262" stop-opacity="0.941"/><stop offset="0.63" stop-color="#383838" stop-opacity="0.922"/><stop offset="0.78" stop-color="#191919" stop-opacity="0.91"/><stop offset="0.91" stop-color="#070707" stop-opacity="0.902"/><stop offset="1" stop-opacity="0.902"/></linearGradient></defs><g transform="translate(0)"><path class="a" d="M42.555.21A23.175,23.175,0,1,1,19.38,23.385,23.172,23.172,0,0,1,42.555.21Z" transform="translate(-19.38 -0.21)"/><path class="b" d="M57.486,58.79A21.265,21.265,0,1,1,78.752,37.526,21.266,21.266,0,0,1,57.486,58.79Z" transform="translate(-34.362 -14.489)"/><path class="c" d="M611.008,68.833A1.891,1.891,0,0,1,610.372,70c-.252.212-.146.552-.371.583a4.064,4.064,0,0,1-2.728-.212,1.228,1.228,0,0,1-.477-1.616,2.236,2.236,0,0,1,1.986-1.245,7.263,7.263,0,0,1,1.854.318A1.328,1.328,0,0,1,611.008,68.833Zm-2.1-5.377a2.983,2.983,0,0,0-.53-.159,6.469,6.469,0,0,1-1.139-.026,1.9,1.9,0,0,1-.98-.9c-.053-.185-.212-9.482-.53-12.554s-1.059-9.482-1.51-11.707-.552-3.258-.4-3.443.344-.583,1.51-.212a2.437,2.437,0,0,1,1.536,1.165c0,.026.08,4.026.715,9.932s1.351,14.037,1.4,14.726a19.5,19.5,0,0,1,.027,2.807c-.084.4-.1.371-.1.371Zm-6.648,2.759a1.977,1.977,0,0,1,.053.344,5.007,5.007,0,0,1-4.635.4c-2.013-1.006-2.344-3.364-2.622-4.45s-.238-2.728-.424-2.834-.795.477-2.357,2.94a20.494,20.494,0,0,0-2.3,5.165c-.026.132-.583.967-1.748.185s-.689-5.8-.689-5.8.053-3.284,0-3.84a2.422,2.422,0,0,0-.132-.715s-.278.04-1.059,1.457a30.544,30.544,0,0,0-2.993,7.2,27.737,27.737,0,0,0-.848,4.745c-.013.084-.159.119-.371.11a1.607,1.607,0,0,1-1.483-.4c-.419-.47-.649-.848-.742-.9s.013-.265.079-.45.358-9.283.4-10.17.2-5.84.291-6.171.583-.49,1.033-.371a4.167,4.167,0,0,1,1.351.848,7.066,7.066,0,0,1,.079,1.854c-.079.649-.318,4.4-.291,4.714a3.714,3.714,0,0,1-.053.772s.291-.675,1.033-2.039,2.278-4.039,3.681-4.525A1.623,1.623,0,0,1,589.63,55.5c.185.472.4,6.732.4,6.732s1.946-4.356,3.523-5.43c1.62-1.1,2.953-.344,3.1.795s.411,3.8.689,5.059a3.952,3.952,0,0,0,1.563,2.649,2.734,2.734,0,0,0,1.245.318,4.154,4.154,0,0,1,.773-.079c.256.031.872.081.9.079a.719.719,0,0,1,.5.291c.053.1-.066.215-.05.3Zm-24.61.424a9.732,9.732,0,0,1-3.072,3.814,3.149,3.149,0,0,1-2.675.026c-1.51-.525-2.37-2.159-2.807-3.2s-.344-1.814-.45-4.5a26.076,26.076,0,0,1,.424-5.35s-.848-1.059-1.324-1.192c-.053-.018-.071-.009.238-.132a2.067,2.067,0,0,0,.662-.45c.221-.088.552-.583.552-.583a27.523,27.523,0,0,1,4.794.795,11.217,11.217,0,0,1,4.423,2.066c1.043.871,1.02,2.794.848,3.761a17.645,17.645,0,0,1-1.6,4.944Zm-.874-6.511c-.468-.892-.821-1.015-1.854-1.4a27.051,27.051,0,0,0-2.966-.795,16.057,16.057,0,0,0-.795,3.682,21.752,21.752,0,0,0,0,3.443,6.8,6.8,0,0,0,.477,2.1,1.929,1.929,0,0,0,1.351.772c.953.062,2.207-1.589,2.357-1.8a10.423,10.423,0,0,0,1.351-2.649,4.956,4.956,0,0,0,.088-3.355ZM569.443,52.1h-.013a48.388,48.388,0,0,1-2.207,4.582A26.857,26.857,0,0,1,565.077,60a10.165,10.165,0,0,1-.795.848s.132,2.529.45,4.556,1.1,8.608,1.086,8.846a.491.491,0,0,1-.477.477c-.3.026-.411-.093-.874-.742a2.536,2.536,0,0,1-.5-1.139s-.822-3.827-1.112-6.251c-.091-.756-.53-2.86-.53-2.86v-.045c-.288.343-.675.784-1.193,1.343a26.833,26.833,0,0,1-5.88,4.9c-1.563.768-3.509,1.205-4.556-.053a2.937,2.937,0,0,1-.552-2.057l-.138.124c-1.483,1.324-3.377,2.609-4.979,2.728a6.368,6.368,0,0,1-4.608-1.324c-1.153-.883-1.534-2.593-1.532-4.121-.343.31-1.565,1.507-2.918,2.717-1.483,1.324-3.377,2.609-4.979,2.728a6.368,6.368,0,0,1-4.609-1.324c-1.51-1.152-1.7-3.734-1.435-5.456a11.838,11.838,0,0,1,2.807-6.41,5.419,5.419,0,0,1,3.973-1.96,5.616,5.616,0,0,1,2.41.424c1.545.579,1.4,2.79.953,3.655a15.772,15.772,0,0,1-2.1,3.734,24.765,24.765,0,0,1-3.152,2.913,16.771,16.771,0,0,0-1.642,1.214,1.811,1.811,0,0,0,2.172,1.059c1.183-.211,1.757-.35,3.973-1.775a33.7,33.7,0,0,0,4.908-4.262,10.678,10.678,0,0,1,2.538-5.008,5.413,5.413,0,0,1,3.973-1.96,5.616,5.616,0,0,1,2.41.424c1.545.579,1.4,2.79.953,3.655a15.777,15.777,0,0,1-2.1,3.734,24.618,24.618,0,0,1-3.136,2.912,16.78,16.78,0,0,0-1.642,1.214,1.811,1.811,0,0,0,2.172,1.059c1.183-.211,1.757-.35,3.973-1.775a29.54,29.54,0,0,0,3.446-2.812c1.735-1.986,4.262-4.791,6.035-5.822,1.61-.938,2.784-1.352,3.7-1.223a40.2,40.2,0,0,1-.231-4.233,42.421,42.421,0,0,1,.5-7.363,11.577,11.577,0,0,1,1.56-4.241,8.541,8.541,0,0,1,2.783-3.069,3.357,3.357,0,0,1,2.437-.45,4.721,4.721,0,0,1,1.986,1.086,4.048,4.048,0,0,1,1.033,1.933c.252,2.942.167,3.71-1.324,9.217-.168.637-.873,2.332-.873,2.332ZM531.26,61.947a5.635,5.635,0,0,0,1.616-3.125c-.04-.225.131-.848,0-.927-.371-.221-1.443-.808-3.2,1.642a10.65,10.65,0,0,0-1.907,5.085A17.078,17.078,0,0,0,531.26,61.947Zm14.024,0a5.634,5.634,0,0,0,1.616-3.125c-.04-.225.131-.848,0-.927-.371-.221-1.443-.808-3.2,1.642a10.651,10.651,0,0,0-1.907,5.085A17.077,17.077,0,0,0,545.284,61.947ZM561.77,60.12c-.11-.53-.49-1.192-.848-1.165s-.94.238-2.384,1.3A23.275,23.275,0,0,0,554.8,63.7a10.152,10.152,0,0,0-1.986,3.364c-.221.874.079,1.282.5,1.351.722.11,1.669-.689,3.364-1.933a24.779,24.779,0,0,0,4.105-3.92A3.568,3.568,0,0,0,561.77,60.12Zm7.394-17.326c-.088-1.333-.15-2.419-.689-2.649a1.51,1.51,0,0,0-1.7.477c-.148.151-.266.285-.36.4a.771.771,0,0,1-.09.132,3.126,3.126,0,0,0-.221.3.19.19,0,0,0-.012.022h0a13.957,13.957,0,0,0-1.766,4.185,61.382,61.382,0,0,0-.662,6.913,11.757,11.757,0,0,0,.079,3.443c.11.643.19.86.265.918l.079-.071c.393-.1,2.538-3.4,3.421-5.664.276-.772.746-2.213.976-3.209a25.605,25.605,0,0,0,.674-5.187ZM524.85,57.445a7.777,7.777,0,0,0-3.5,1.642,10.231,10.231,0,0,0-3.2,4.847,42.853,42.853,0,0,0-.318,5.187c-.053,1.161.322,1.2-.159,1.536a2.654,2.654,0,0,1-1.907.185c-.371-.119-.441-.424-.4-.772s-.013-5.046-.159-6.595-.883-8.15-.953-9.111c-.031-.424.574-.477.773-.4.245.1,1.474.574,1.51.609s.124.592.318,1.563.331,3.32.344,3.47a.667.667,0,0,0,.132.291,8.415,8.415,0,0,1,2.538-2.781,9.33,9.33,0,0,1,3.92-1.324,15.449,15.449,0,0,1,3.284-.079,1.244,1.244,0,0,1-.053.583C526.916,56.64,527.158,57.1,524.85,57.445Zm.98-21.241c-.088.035-1.978.552-4.238,1.139s-8.767,2.331-10.621,2.7a16.715,16.715,0,0,0-3.549,1.006c-.04.11.046,1.318-.026,1.8a19.919,19.919,0,0,0-.026,2.622c-.017-.159.068,4.362.265,5.218a19.8,19.8,0,0,0,3.655-1.271,34.326,34.326,0,0,1,4.873-1.563c1.093-.311,2-.49,2.1-.5a.588.588,0,0,1,.318.742c-.179.377-.457.622-1.563,1.165s-4.172,1.854-4.873,2.145-2.7,1.214-3.019,1.4a3.422,3.422,0,0,1-.98.344c-.179.033-.232.053-.238.11s.053,2.417.11,3.258.179,3.158.185,3.682.119,3.225.159,3.84.285,4.072.318,4.525a15.423,15.423,0,0,0,.159,1.563c.073.318.146.417.053.45a9.6,9.6,0,0,1-1.722.212,7.777,7.777,0,0,1-1.351.026c.007-.013.018-2.1,0-3.1s-.018-3.973-.079-5.032-.053-1.086-.053-1.086-.177-4.352-.265-5.456a16.491,16.491,0,0,0-.159-2.066.266.266,0,0,0-.265.026,3.537,3.537,0,0,1-1.483.371,2.168,2.168,0,0,1-1.165-.185c-.132-.04-.026-.291-.026-.291s-.441-.066-.477-.344a1.047,1.047,0,0,1,.424-1.059,5.049,5.049,0,0,1,1.748-.689,2.006,2.006,0,0,0,.953-.477c.013-.093-.027-4.423-.185-6.7s-.185-2.887-.185-2.887-1.185.371-1.7-.371a1.96,1.96,0,0,1-.344-1.96,4.7,4.7,0,0,1,1.006-.552c.41-.174.708-.285.742-.318s0-1.545.53-2.145a1.162,1.162,0,0,1,1.4-.344,2.21,2.21,0,0,1,.573,1.029c.11.384.179.8.265.821s6.012-1.112,9.853-1.933,5.681-1.205,5.959-1.271,2.331-.516,2.49-.583a.525.525,0,0,1,.4-.053c.1.034.318.013.318.079s.168.706.212.98a.551.551,0,0,1-.132.552C526.014,36,525.918,36.168,525.83,36.2Z" transform="translate(-448.586 -30.398)"/><path class="d" d="M127.238,80.07H123.07l-4.11,6.013V109.75h8.278Z" transform="translate(-105.832 -71.234)"/><path class="d" d="M204.537,80.07H191.87v6.069H200.4Z" transform="translate(-170.696 -71.234)"/><rect class="d" width="8.168" height="5.977" transform="translate(21.392 20.91)"/><path class="e" d="M146.5,302.266H138.22l4.122-5.826Z" transform="translate(-125.105 -263.749)"/><path class="f" d="M138.22,256.092V244.54l4.119,5.728Z" transform="translate(-125.105 -217.577)"/><path class="g" d="M179.723,255.469l.007-11.629-4.169,5.8Z" transform="translate(-158.324 -216.954)"/><path class="h" d="M179.729,195.666l-4.169,5.8V189.69Z" transform="translate(-158.324 -168.78)"/><path class="i" d="M138.24,195.743l4.119,5.728V189.69Z" transform="translate(-125.123 -168.78)"/><path class="j" d="M179.746,147.279V135.25l-4.166,6.006Z" transform="translate(-158.342 -120.347)"/><path class="j" d="M221.442,195.676l-8.1.008,4.061-5.993Z" transform="translate(-191.935 -168.78)"/><path class="k" d="M250.14,189.69h4.077l-.035,5.986Z" transform="translate(-224.674 -168.78)"/><path class="l" d="M213.34,195.683V189.69H217.4Z" transform="translate(-191.935 -168.78)"/><path class="m" d="M138.24,147V134.9l4.121,6.046Z" transform="translate(-125.123 -120.036)"/><path class="g" d="M138.21,86.307l4.124,6.048V80.28Z" transform="translate(-125.096 -71.444)"/><path class="k" d="M179.746,86.349l-4.166,6.006V80.28Z" transform="translate(-158.342 -71.444)"/><path class="n" d="M221.626,86.34h-8.3l4-6.07Z" transform="translate(-191.926 -71.435)"/><path class="g" d="M175.58,80.28h8.166l-4,6.07Z" transform="translate(-158.342 -71.444)"/><path class="k" d="M249.62,80.28h8.429l-4.142,6.07Z" transform="translate(-224.211 -71.444)"/></g></svg>